<mxfile host="app.diagrams.net" agent="Mozilla/5.0 (Windows NT 10.0; Win64; x64) AppleWebKit/537.36 (KHTML, like Gecko) Chrome/128.0.0.0 Safari/537.36 OPR/114.0.0.0" version="26.0.4">
  <diagram name="PÃ¡gina-1" id="EQY7rx08GIGifhaFdDs0">
    <mxGraphModel dx="545" dy="1867" grid="1" gridSize="10" guides="1" tooltips="1" connect="1" arrows="1" fold="1" page="1" pageScale="1" pageWidth="827" pageHeight="1169" math="0" shadow="0">
      <root>
        <mxCell id="0" />
        <mxCell id="1" parent="0" />
        <mxCell id="6GOztxUwA011YL0eF0oX-51" style="edgeStyle=orthogonalEdgeStyle;rounded=0;orthogonalLoop=1;jettySize=auto;html=1;exitX=0.5;exitY=1;exitDx=0;exitDy=0;entryX=0.5;entryY=0;entryDx=0;entryDy=0;" edge="1" parent="1" source="6GOztxUwA011YL0eF0oX-1" target="6GOztxUwA011YL0eF0oX-48">
          <mxGeometry relative="1" as="geometry" />
        </mxCell>
        <mxCell id="6GOztxUwA011YL0eF0oX-1" value="Inicio" style="ellipse;whiteSpace=wrap;html=1;" vertex="1" parent="1">
          <mxGeometry x="210" y="-20" width="120" height="70" as="geometry" />
        </mxCell>
        <mxCell id="6GOztxUwA011YL0eF0oX-2" value="Fim" style="ellipse;whiteSpace=wrap;html=1;" vertex="1" parent="1">
          <mxGeometry x="210" y="1580" width="120" height="70" as="geometry" />
        </mxCell>
        <mxCell id="6GOztxUwA011YL0eF0oX-52" style="edgeStyle=orthogonalEdgeStyle;rounded=0;orthogonalLoop=1;jettySize=auto;html=1;exitX=0.5;exitY=1;exitDx=0;exitDy=0;entryX=0.5;entryY=0;entryDx=0;entryDy=0;" edge="1" parent="1" source="6GOztxUwA011YL0eF0oX-48" target="6GOztxUwA011YL0eF0oX-50">
          <mxGeometry relative="1" as="geometry" />
        </mxCell>
        <mxCell id="6GOztxUwA011YL0eF0oX-48" value="loop = 1" style="rounded=1;whiteSpace=wrap;html=1;absoluteArcSize=1;arcSize=14;strokeWidth=2;" vertex="1" parent="1">
          <mxGeometry x="205" y="80" width="130" height="50" as="geometry" />
        </mxCell>
        <mxCell id="6GOztxUwA011YL0eF0oX-57" style="edgeStyle=orthogonalEdgeStyle;rounded=0;orthogonalLoop=1;jettySize=auto;html=1;exitX=1;exitY=0.5;exitDx=0;exitDy=0;exitPerimeter=0;entryX=0.5;entryY=0;entryDx=0;entryDy=0;" edge="1" parent="1" source="6GOztxUwA011YL0eF0oX-49" target="6GOztxUwA011YL0eF0oX-56">
          <mxGeometry relative="1" as="geometry" />
        </mxCell>
        <mxCell id="6GOztxUwA011YL0eF0oX-63" value="F" style="edgeLabel;html=1;align=center;verticalAlign=middle;resizable=0;points=[];" vertex="1" connectable="0" parent="6GOztxUwA011YL0eF0oX-57">
          <mxGeometry x="-0.4815" y="-3" relative="1" as="geometry">
            <mxPoint y="-23" as="offset" />
          </mxGeometry>
        </mxCell>
        <mxCell id="6GOztxUwA011YL0eF0oX-49" value="N&amp;lt;0" style="strokeWidth=2;html=1;shape=mxgraph.flowchart.decision;whiteSpace=wrap;" vertex="1" parent="1">
          <mxGeometry x="215" y="280" width="110" height="60" as="geometry" />
        </mxCell>
        <mxCell id="6GOztxUwA011YL0eF0oX-50" value="N" style="shape=parallelogram;html=1;strokeWidth=2;perimeter=parallelogramPerimeter;whiteSpace=wrap;rounded=1;arcSize=12;size=0.23;" vertex="1" parent="1">
          <mxGeometry x="200" y="180" width="140" height="50" as="geometry" />
        </mxCell>
        <mxCell id="6GOztxUwA011YL0eF0oX-53" style="edgeStyle=orthogonalEdgeStyle;rounded=0;orthogonalLoop=1;jettySize=auto;html=1;exitX=0.5;exitY=1;exitDx=0;exitDy=0;entryX=0.5;entryY=0;entryDx=0;entryDy=0;entryPerimeter=0;" edge="1" parent="1" source="6GOztxUwA011YL0eF0oX-50" target="6GOztxUwA011YL0eF0oX-49">
          <mxGeometry relative="1" as="geometry" />
        </mxCell>
        <mxCell id="6GOztxUwA011YL0eF0oX-56" value="loop = 0" style="rounded=1;whiteSpace=wrap;html=1;absoluteArcSize=1;arcSize=14;strokeWidth=2;" vertex="1" parent="1">
          <mxGeometry x="325" y="380" width="130" height="50" as="geometry" />
        </mxCell>
        <mxCell id="6GOztxUwA011YL0eF0oX-58" value="" style="verticalLabelPosition=bottom;verticalAlign=top;html=1;shape=mxgraph.flowchart.on-page_reference;" vertex="1" parent="1">
          <mxGeometry x="255" y="480" width="30" height="30" as="geometry" />
        </mxCell>
        <mxCell id="6GOztxUwA011YL0eF0oX-59" style="edgeStyle=orthogonalEdgeStyle;rounded=0;orthogonalLoop=1;jettySize=auto;html=1;exitX=0.5;exitY=1;exitDx=0;exitDy=0;entryX=1;entryY=0.5;entryDx=0;entryDy=0;entryPerimeter=0;" edge="1" parent="1" source="6GOztxUwA011YL0eF0oX-56" target="6GOztxUwA011YL0eF0oX-58">
          <mxGeometry relative="1" as="geometry" />
        </mxCell>
        <mxCell id="6GOztxUwA011YL0eF0oX-60" style="edgeStyle=orthogonalEdgeStyle;rounded=0;orthogonalLoop=1;jettySize=auto;html=1;exitX=0;exitY=0.5;exitDx=0;exitDy=0;exitPerimeter=0;entryX=0;entryY=0.5;entryDx=0;entryDy=0;entryPerimeter=0;" edge="1" parent="1" source="6GOztxUwA011YL0eF0oX-49" target="6GOztxUwA011YL0eF0oX-58">
          <mxGeometry relative="1" as="geometry">
            <Array as="points">
              <mxPoint x="150" y="310" />
              <mxPoint x="150" y="495" />
            </Array>
          </mxGeometry>
        </mxCell>
        <mxCell id="6GOztxUwA011YL0eF0oX-62" value="V" style="edgeLabel;html=1;align=center;verticalAlign=middle;resizable=0;points=[];" vertex="1" connectable="0" parent="6GOztxUwA011YL0eF0oX-60">
          <mxGeometry x="-0.2394" y="-2" relative="1" as="geometry">
            <mxPoint x="32" y="-90" as="offset" />
          </mxGeometry>
        </mxCell>
        <mxCell id="6GOztxUwA011YL0eF0oX-61" value="&lt;span style=&quot;color: rgba(0, 0, 0, 0); font-family: monospace; font-size: 0px; text-align: start;&quot;&gt;%3CmxGraphModel%3E%3Croot%3E%3CmxCell%20id%3D%220%22%2F%3E%3CmxCell%20id%3D%221%22%20parent%3D%220%22%2F%3E%3CmxCell%20id%3D%222%22%20value%3D%22loop%20%3D%201%22%20style%3D%22rounded%3D1%3BwhiteSpace%3Dwrap%3Bhtml%3D1%3BabsoluteArcSize%3D1%3BarcSize%3D14%3BstrokeWidth%3D2%3B%22%20vertex%3D%221%22%20parent%3D%221%22%3E%3CmxGeometry%20x%3D%22205%22%20y%3D%2280%22%20width%3D%22130%22%20height%3D%2250%22%20as%3D%22geometry%22%2F%3E%3C%2FmxCell%3E%3C%2Froot%3E%3C%2FmxGraphModel%3EV&lt;/span&gt;" style="text;html=1;align=center;verticalAlign=middle;resizable=0;points=[];autosize=1;strokeColor=none;fillColor=none;" vertex="1" parent="1">
          <mxGeometry x="130" y="338" width="20" height="30" as="geometry" />
        </mxCell>
        <mxCell id="6GOztxUwA011YL0eF0oX-67" style="edgeStyle=orthogonalEdgeStyle;rounded=0;orthogonalLoop=1;jettySize=auto;html=1;exitX=0;exitY=0.5;exitDx=0;exitDy=0;exitPerimeter=0;entryX=0;entryY=0.5;entryDx=0;entryDy=0;" edge="1" parent="1" source="6GOztxUwA011YL0eF0oX-65" target="6GOztxUwA011YL0eF0oX-50">
          <mxGeometry relative="1" as="geometry">
            <Array as="points">
              <mxPoint x="90" y="590" />
              <mxPoint x="90" y="205" />
            </Array>
          </mxGeometry>
        </mxCell>
        <mxCell id="6GOztxUwA011YL0eF0oX-70" style="edgeStyle=orthogonalEdgeStyle;rounded=0;orthogonalLoop=1;jettySize=auto;html=1;exitX=0.5;exitY=1;exitDx=0;exitDy=0;exitPerimeter=0;entryX=0.5;entryY=0;entryDx=0;entryDy=0;" edge="1" parent="1" source="6GOztxUwA011YL0eF0oX-65" target="6GOztxUwA011YL0eF0oX-69">
          <mxGeometry relative="1" as="geometry" />
        </mxCell>
        <mxCell id="6GOztxUwA011YL0eF0oX-71" value="F" style="edgeLabel;html=1;align=center;verticalAlign=middle;resizable=0;points=[];" vertex="1" connectable="0" parent="6GOztxUwA011YL0eF0oX-70">
          <mxGeometry x="-0.4" y="2" relative="1" as="geometry">
            <mxPoint x="8" y="5" as="offset" />
          </mxGeometry>
        </mxCell>
        <mxCell id="6GOztxUwA011YL0eF0oX-65" value="loop == 1" style="strokeWidth=2;html=1;shape=mxgraph.flowchart.decision;whiteSpace=wrap;" vertex="1" parent="1">
          <mxGeometry x="215" y="560" width="110" height="60" as="geometry" />
        </mxCell>
        <mxCell id="6GOztxUwA011YL0eF0oX-66" style="edgeStyle=orthogonalEdgeStyle;rounded=0;orthogonalLoop=1;jettySize=auto;html=1;exitX=0.5;exitY=1;exitDx=0;exitDy=0;exitPerimeter=0;entryX=0.5;entryY=0;entryDx=0;entryDy=0;entryPerimeter=0;" edge="1" parent="1" source="6GOztxUwA011YL0eF0oX-58" target="6GOztxUwA011YL0eF0oX-65">
          <mxGeometry relative="1" as="geometry" />
        </mxCell>
        <mxCell id="6GOztxUwA011YL0eF0oX-68" value="V" style="text;html=1;align=center;verticalAlign=middle;resizable=0;points=[];autosize=1;strokeColor=none;fillColor=none;" vertex="1" parent="1">
          <mxGeometry x="140" y="560" width="30" height="30" as="geometry" />
        </mxCell>
        <mxCell id="6GOztxUwA011YL0eF0oX-69" value="loop = 1" style="rounded=1;whiteSpace=wrap;html=1;absoluteArcSize=1;arcSize=14;strokeWidth=2;" vertex="1" parent="1">
          <mxGeometry x="205" y="670" width="130" height="50" as="geometry" />
        </mxCell>
        <mxCell id="6GOztxUwA011YL0eF0oX-76" style="edgeStyle=orthogonalEdgeStyle;rounded=0;orthogonalLoop=1;jettySize=auto;html=1;exitX=1;exitY=0.5;exitDx=0;exitDy=0;exitPerimeter=0;entryX=0.5;entryY=0;entryDx=0;entryDy=0;" edge="1" parent="1" source="6GOztxUwA011YL0eF0oX-73" target="6GOztxUwA011YL0eF0oX-75">
          <mxGeometry relative="1" as="geometry" />
        </mxCell>
        <mxCell id="6GOztxUwA011YL0eF0oX-83" value="F" style="edgeLabel;html=1;align=center;verticalAlign=middle;resizable=0;points=[];" vertex="1" connectable="0" parent="6GOztxUwA011YL0eF0oX-76">
          <mxGeometry x="-0.6571" y="4" relative="1" as="geometry">
            <mxPoint x="21" y="-6" as="offset" />
          </mxGeometry>
        </mxCell>
        <mxCell id="6GOztxUwA011YL0eF0oX-78" style="edgeStyle=orthogonalEdgeStyle;rounded=0;orthogonalLoop=1;jettySize=auto;html=1;exitX=0;exitY=0.5;exitDx=0;exitDy=0;exitPerimeter=0;entryX=0.5;entryY=0;entryDx=0;entryDy=0;" edge="1" parent="1" source="6GOztxUwA011YL0eF0oX-73" target="6GOztxUwA011YL0eF0oX-77">
          <mxGeometry relative="1" as="geometry" />
        </mxCell>
        <mxCell id="6GOztxUwA011YL0eF0oX-82" value="V" style="edgeLabel;html=1;align=center;verticalAlign=middle;resizable=0;points=[];" vertex="1" connectable="0" parent="6GOztxUwA011YL0eF0oX-78">
          <mxGeometry x="-0.3733" y="1" relative="1" as="geometry">
            <mxPoint x="2" y="-11" as="offset" />
          </mxGeometry>
        </mxCell>
        <mxCell id="6GOztxUwA011YL0eF0oX-73" value="N%2 == 0" style="strokeWidth=2;html=1;shape=mxgraph.flowchart.decision;whiteSpace=wrap;" vertex="1" parent="1">
          <mxGeometry x="215" y="770" width="110" height="60" as="geometry" />
        </mxCell>
        <mxCell id="6GOztxUwA011YL0eF0oX-74" style="edgeStyle=orthogonalEdgeStyle;rounded=0;orthogonalLoop=1;jettySize=auto;html=1;exitX=0.5;exitY=1;exitDx=0;exitDy=0;entryX=0.5;entryY=0;entryDx=0;entryDy=0;entryPerimeter=0;" edge="1" parent="1" source="6GOztxUwA011YL0eF0oX-69" target="6GOztxUwA011YL0eF0oX-73">
          <mxGeometry relative="1" as="geometry" />
        </mxCell>
        <mxCell id="6GOztxUwA011YL0eF0oX-75" value="varImpar++" style="rounded=1;whiteSpace=wrap;html=1;absoluteArcSize=1;arcSize=14;strokeWidth=2;" vertex="1" parent="1">
          <mxGeometry x="330" y="870" width="130" height="50" as="geometry" />
        </mxCell>
        <mxCell id="6GOztxUwA011YL0eF0oX-77" value="varPar++" style="rounded=1;whiteSpace=wrap;html=1;absoluteArcSize=1;arcSize=14;strokeWidth=2;" vertex="1" parent="1">
          <mxGeometry x="70" y="870" width="130" height="50" as="geometry" />
        </mxCell>
        <mxCell id="6GOztxUwA011YL0eF0oX-85" style="edgeStyle=orthogonalEdgeStyle;rounded=0;orthogonalLoop=1;jettySize=auto;html=1;exitX=0.5;exitY=1;exitDx=0;exitDy=0;exitPerimeter=0;entryX=0.5;entryY=0;entryDx=0;entryDy=0;" edge="1" parent="1" source="6GOztxUwA011YL0eF0oX-79" target="6GOztxUwA011YL0eF0oX-84">
          <mxGeometry relative="1" as="geometry" />
        </mxCell>
        <mxCell id="6GOztxUwA011YL0eF0oX-79" value="" style="verticalLabelPosition=bottom;verticalAlign=top;html=1;shape=mxgraph.flowchart.on-page_reference;" vertex="1" parent="1">
          <mxGeometry x="255" y="980" width="30" height="30" as="geometry" />
        </mxCell>
        <mxCell id="6GOztxUwA011YL0eF0oX-80" style="edgeStyle=orthogonalEdgeStyle;rounded=0;orthogonalLoop=1;jettySize=auto;html=1;exitX=0.5;exitY=1;exitDx=0;exitDy=0;entryX=0;entryY=0.5;entryDx=0;entryDy=0;entryPerimeter=0;" edge="1" parent="1" source="6GOztxUwA011YL0eF0oX-77" target="6GOztxUwA011YL0eF0oX-79">
          <mxGeometry relative="1" as="geometry" />
        </mxCell>
        <mxCell id="6GOztxUwA011YL0eF0oX-81" style="edgeStyle=orthogonalEdgeStyle;rounded=0;orthogonalLoop=1;jettySize=auto;html=1;exitX=0.5;exitY=1;exitDx=0;exitDy=0;entryX=1;entryY=0.5;entryDx=0;entryDy=0;entryPerimeter=0;" edge="1" parent="1" source="6GOztxUwA011YL0eF0oX-75" target="6GOztxUwA011YL0eF0oX-79">
          <mxGeometry relative="1" as="geometry" />
        </mxCell>
        <mxCell id="6GOztxUwA011YL0eF0oX-84" value="loop" style="shape=parallelogram;html=1;strokeWidth=2;perimeter=parallelogramPerimeter;whiteSpace=wrap;rounded=1;arcSize=12;size=0.23;" vertex="1" parent="1">
          <mxGeometry x="200" y="1070" width="140" height="50" as="geometry" />
        </mxCell>
        <mxCell id="6GOztxUwA011YL0eF0oX-86" value="loop != 1" style="strokeWidth=2;html=1;shape=mxgraph.flowchart.decision;whiteSpace=wrap;" vertex="1" parent="1">
          <mxGeometry x="215" y="1170" width="110" height="60" as="geometry" />
        </mxCell>
        <mxCell id="6GOztxUwA011YL0eF0oX-87" value="loop != 0" style="strokeWidth=2;html=1;shape=mxgraph.flowchart.decision;whiteSpace=wrap;" vertex="1" parent="1">
          <mxGeometry x="215" y="1280" width="110" height="60" as="geometry" />
        </mxCell>
        <mxCell id="6GOztxUwA011YL0eF0oX-88" style="edgeStyle=orthogonalEdgeStyle;rounded=0;orthogonalLoop=1;jettySize=auto;html=1;exitX=0.5;exitY=1;exitDx=0;exitDy=0;entryX=0.5;entryY=0;entryDx=0;entryDy=0;entryPerimeter=0;" edge="1" parent="1" source="6GOztxUwA011YL0eF0oX-84" target="6GOztxUwA011YL0eF0oX-86">
          <mxGeometry relative="1" as="geometry" />
        </mxCell>
        <mxCell id="6GOztxUwA011YL0eF0oX-89" style="edgeStyle=orthogonalEdgeStyle;rounded=0;orthogonalLoop=1;jettySize=auto;html=1;exitX=0.5;exitY=1;exitDx=0;exitDy=0;exitPerimeter=0;entryX=0.5;entryY=0;entryDx=0;entryDy=0;entryPerimeter=0;" edge="1" parent="1" source="6GOztxUwA011YL0eF0oX-86" target="6GOztxUwA011YL0eF0oX-87">
          <mxGeometry relative="1" as="geometry" />
        </mxCell>
        <mxCell id="6GOztxUwA011YL0eF0oX-97" value="F" style="edgeLabel;html=1;align=center;verticalAlign=middle;resizable=0;points=[];" vertex="1" connectable="0" parent="6GOztxUwA011YL0eF0oX-89">
          <mxGeometry x="-0.2" y="3" relative="1" as="geometry">
            <mxPoint x="12" as="offset" />
          </mxGeometry>
        </mxCell>
        <mxCell id="6GOztxUwA011YL0eF0oX-98" style="edgeStyle=orthogonalEdgeStyle;rounded=0;orthogonalLoop=1;jettySize=auto;html=1;exitX=0;exitY=0.5;exitDx=0;exitDy=0;exitPerimeter=0;entryX=0;entryY=0.5;entryDx=0;entryDy=0;" edge="1" parent="1" source="6GOztxUwA011YL0eF0oX-91" target="6GOztxUwA011YL0eF0oX-84">
          <mxGeometry relative="1" as="geometry">
            <Array as="points">
              <mxPoint x="70" y="1255" />
              <mxPoint x="70" y="1095" />
            </Array>
          </mxGeometry>
        </mxCell>
        <mxCell id="6GOztxUwA011YL0eF0oX-91" value="" style="verticalLabelPosition=bottom;verticalAlign=top;html=1;shape=mxgraph.flowchart.on-page_reference;" vertex="1" parent="1">
          <mxGeometry x="120" y="1240" width="30" height="30" as="geometry" />
        </mxCell>
        <mxCell id="6GOztxUwA011YL0eF0oX-92" style="edgeStyle=orthogonalEdgeStyle;rounded=0;orthogonalLoop=1;jettySize=auto;html=1;exitX=0;exitY=0.5;exitDx=0;exitDy=0;exitPerimeter=0;entryX=0.5;entryY=1;entryDx=0;entryDy=0;entryPerimeter=0;" edge="1" parent="1" source="6GOztxUwA011YL0eF0oX-87" target="6GOztxUwA011YL0eF0oX-91">
          <mxGeometry relative="1" as="geometry" />
        </mxCell>
        <mxCell id="6GOztxUwA011YL0eF0oX-93" style="edgeStyle=orthogonalEdgeStyle;rounded=0;orthogonalLoop=1;jettySize=auto;html=1;exitX=0;exitY=0.5;exitDx=0;exitDy=0;exitPerimeter=0;entryX=0.5;entryY=0;entryDx=0;entryDy=0;entryPerimeter=0;" edge="1" parent="1" source="6GOztxUwA011YL0eF0oX-86" target="6GOztxUwA011YL0eF0oX-91">
          <mxGeometry relative="1" as="geometry" />
        </mxCell>
        <mxCell id="6GOztxUwA011YL0eF0oX-94" value="&lt;span style=&quot;color: rgba(0, 0, 0, 0); font-family: monospace; font-size: 0px; text-align: start; background-color: rgb(251, 251, 251);&quot;&gt;%3CmxGraphModel%3E%3Croot%3E%3CmxCell%20id%3D%220%22%2F%3E%3CmxCell%20id%3D%221%22%20parent%3D%220%22%2F%3E%3CmxCell%20id%3D%222%22%20value%3D%22%22%20style%3D%22verticalLabelPosition%3Dbottom%3BverticalAlign%3Dtop%3Bhtml%3D1%3Bshape%3Dmxgraph.flowchart.on-page_reference%3B%22%20vertex%3D%221%22%20parent%3D%221%22%3E%3CmxGeometry%20x%3D%22255%22%20y%3D%22980%22%20width%3D%2230%22%20height%3D%2230%22%20as%3D%22geometry%22%2F%3E%3C%2FmxCell%3E%3C%2Froot%3E%3C%2FmxGraphModel%3EV&lt;/span&gt;" style="edgeLabel;html=1;align=center;verticalAlign=middle;resizable=0;points=[];" vertex="1" connectable="0" parent="6GOztxUwA011YL0eF0oX-93">
          <mxGeometry x="-0.7833" y="-3" relative="1" as="geometry">
            <mxPoint as="offset" />
          </mxGeometry>
        </mxCell>
        <mxCell id="6GOztxUwA011YL0eF0oX-95" value="V" style="edgeLabel;html=1;align=center;verticalAlign=middle;resizable=0;points=[];" vertex="1" connectable="0" parent="6GOztxUwA011YL0eF0oX-93">
          <mxGeometry x="-0.1667" y="-1" relative="1" as="geometry">
            <mxPoint x="15" y="131" as="offset" />
          </mxGeometry>
        </mxCell>
        <mxCell id="6GOztxUwA011YL0eF0oX-96" value="V" style="edgeLabel;html=1;align=center;verticalAlign=middle;resizable=0;points=[];" vertex="1" connectable="0" parent="1">
          <mxGeometry x="170" y="1190" as="geometry">
            <mxPoint x="12" y="-7" as="offset" />
          </mxGeometry>
        </mxCell>
        <mxCell id="6GOztxUwA011YL0eF0oX-102" style="edgeStyle=orthogonalEdgeStyle;rounded=0;orthogonalLoop=1;jettySize=auto;html=1;exitX=1;exitY=0.5;exitDx=0;exitDy=0;exitPerimeter=0;entryX=1;entryY=0.5;entryDx=0;entryDy=0;" edge="1" parent="1" source="6GOztxUwA011YL0eF0oX-99" target="6GOztxUwA011YL0eF0oX-50">
          <mxGeometry relative="1" as="geometry">
            <Array as="points">
              <mxPoint x="520" y="1410" />
              <mxPoint x="520" y="205" />
            </Array>
          </mxGeometry>
        </mxCell>
        <mxCell id="6GOztxUwA011YL0eF0oX-99" value="loop == 1" style="strokeWidth=2;html=1;shape=mxgraph.flowchart.decision;whiteSpace=wrap;" vertex="1" parent="1">
          <mxGeometry x="215" y="1380" width="110" height="60" as="geometry" />
        </mxCell>
        <mxCell id="6GOztxUwA011YL0eF0oX-100" style="edgeStyle=orthogonalEdgeStyle;rounded=0;orthogonalLoop=1;jettySize=auto;html=1;exitX=0.5;exitY=1;exitDx=0;exitDy=0;exitPerimeter=0;entryX=0.5;entryY=0;entryDx=0;entryDy=0;entryPerimeter=0;" edge="1" parent="1" source="6GOztxUwA011YL0eF0oX-87" target="6GOztxUwA011YL0eF0oX-99">
          <mxGeometry relative="1" as="geometry" />
        </mxCell>
        <mxCell id="6GOztxUwA011YL0eF0oX-101" value="F" style="edgeLabel;html=1;align=center;verticalAlign=middle;resizable=0;points=[];" vertex="1" connectable="0" parent="6GOztxUwA011YL0eF0oX-100">
          <mxGeometry x="-0.15" y="1" relative="1" as="geometry">
            <mxPoint x="14" as="offset" />
          </mxGeometry>
        </mxCell>
        <mxCell id="6GOztxUwA011YL0eF0oX-105" style="edgeStyle=orthogonalEdgeStyle;rounded=0;orthogonalLoop=1;jettySize=auto;html=1;exitX=0.5;exitY=1;exitDx=0;exitDy=0;exitPerimeter=0;entryX=0.5;entryY=0;entryDx=0;entryDy=0;" edge="1" parent="1" source="6GOztxUwA011YL0eF0oX-103" target="6GOztxUwA011YL0eF0oX-2">
          <mxGeometry relative="1" as="geometry" />
        </mxCell>
        <mxCell id="6GOztxUwA011YL0eF0oX-103" value="varPar&lt;div&gt;varImpar&lt;/div&gt;" style="strokeWidth=2;html=1;shape=mxgraph.flowchart.display;whiteSpace=wrap;" vertex="1" parent="1">
          <mxGeometry x="220" y="1480" width="100" height="60" as="geometry" />
        </mxCell>
        <mxCell id="6GOztxUwA011YL0eF0oX-104" style="edgeStyle=orthogonalEdgeStyle;rounded=0;orthogonalLoop=1;jettySize=auto;html=1;exitX=0.5;exitY=1;exitDx=0;exitDy=0;exitPerimeter=0;entryX=0.5;entryY=0;entryDx=0;entryDy=0;entryPerimeter=0;" edge="1" parent="1" source="6GOztxUwA011YL0eF0oX-99" target="6GOztxUwA011YL0eF0oX-103">
          <mxGeometry relative="1" as="geometry" />
        </mxCell>
        <mxCell id="6GOztxUwA011YL0eF0oX-106" value="V" style="text;html=1;align=center;verticalAlign=middle;resizable=0;points=[];autosize=1;strokeColor=none;fillColor=none;" vertex="1" parent="1">
          <mxGeometry x="360" y="1380" width="30" height="30" as="geometry" />
        </mxCell>
        <mxCell id="6GOztxUwA011YL0eF0oX-107" value="F" style="text;html=1;align=center;verticalAlign=middle;resizable=0;points=[];autosize=1;strokeColor=none;fillColor=none;" vertex="1" parent="1">
          <mxGeometry x="280" y="1440" width="30" height="30" as="geometry" />
        </mxCell>
      </root>
    </mxGraphModel>
  </diagram>
</mxfile>
